<svg width="59" height="66" viewBox="0 0 59 66" fill="none" xmlns="http://www.w3.org/2000/svg">
<g clip-path="url(#clip0_44_19)">
<mask id="mask0_44_19" style="mask-type:luminance" maskUnits="userSpaceOnUse" x="0" y="0" width="59" height="66">
<path d="M59 0H0V66H59V0Z" fill="white"/>
</mask>
<g mask="url(#mask0_44_19)">
<path d="M36.3 6.59999C36.3 4.77468 34.8253 3.29999 33 3.29999C31.1747 3.29999 29.7 4.77468 29.7 6.59999V13.2H19.8C14.3344 13.2 9.9 17.6344 9.9 23.1V46.2C9.9 51.6656 14.3344 56.1 19.8 56.1H46.2C51.6656 56.1 56.1 51.6656 56.1 46.2V23.1C56.1 17.6344 51.6656 13.2 46.2 13.2H36.3V6.59999ZM16.5 44.55C16.5 43.1784 17.6034 42.075 18.975 42.075H22.275C23.6466 42.075 24.75 43.1784 24.75 44.55C24.75 45.9216 23.6466 47.025 22.275 47.025H18.975C17.6034 47.025 16.5 45.9216 16.5 44.55ZM28.875 44.55C28.875 43.1784 29.9784 42.075 31.35 42.075H34.65C36.0216 42.075 37.125 43.1784 37.125 44.55C37.125 45.9216 36.0216 47.025 34.65 47.025H31.35C29.9784 47.025 28.875 45.9216 28.875 44.55ZM41.25 44.55C41.25 43.1784 42.3534 42.075 43.725 42.075H47.025C48.3966 42.075 49.5 43.1784 49.5 44.55C49.5 45.9216 48.3966 47.025 47.025 47.025H43.725C42.3534 47.025 41.25 45.9216 41.25 44.55ZM23.1 24.75C25.8328 24.75 28.05 26.9672 28.05 29.7C28.05 32.4328 25.8328 34.65 23.1 34.65C20.3672 34.65 18.15 32.4328 18.15 29.7C18.15 26.9672 20.3672 24.75 23.1 24.75ZM37.95 29.7C37.95 26.9672 40.1672 24.75 42.9 24.75C45.6328 24.75 47.85 26.9672 47.85 29.7C47.85 32.4328 45.6328 34.65 42.9 34.65C40.1672 34.65 37.95 32.4328 37.95 29.7ZM6.6 29.7C6.6 27.8747 5.12531 26.4 3.3 26.4C1.47469 26.4 0 27.8747 0 29.7V39.6C0 41.4253 1.47469 42.9 3.3 42.9C5.12531 42.9 6.6 41.4253 6.6 39.6V29.7ZM62.7 26.4C60.8747 26.4 59.4 27.8747 59.4 29.7V39.6C59.4 41.4253 60.8747 42.9 62.7 42.9C64.5253 42.9 66 41.4253 66 39.6V29.7C66 27.8747 64.5253 26.4 62.7 26.4Z" fill="white"/>
</g>
</g>
<defs>
<clipPath id="clip0_44_19">
<rect width="59" height="66" fill="white"/>
</clipPath>
</defs>
</svg>
